<?xml version="1.0" encoding="UTF-8"?>
<svg width="512" height="512" viewBox="0 0 512 512" fill="none" xmlns="http://www.w3.org/2000/svg">
  <path d="M459.94 256c0 112.51-91.44 203.94-203.94 203.94S52.06 368.51 52.06 256 143.5 52.06 256 52.06 459.94 143.5 459.94 256z" fill="#6FBCF0"/>
  <path d="M153.8 296.93c-1.6-2.3-3.9-4.1-6.6-5.2-2.7-1.1-5.6-1.5-8.5-1.2-2.9.3-5.7 1.4-8 3.1-2.3 1.7-4.2 4-5.4 6.7-1.2 2.7-1.7 5.6-1.4 8.5.3 2.9 1.3 5.7 3 8 1.7 2.3 3.9 4.2 6.6 5.3 2.7 1.1 5.6 1.5 8.5 1.2 2.9-.3 5.6-1.3 8-3 2.3-1.7 4.2-3.9 5.4-6.6 1.2-2.7 1.7-5.6 1.4-8.5-.3-2.9-1.3-5.6-3-8l-.6-.3z" fill="#fff"/>
  <path d="M256 151.83c-57.53 0-104.17 46.64-104.17 104.17S198.47 360.17 256 360.17 360.17 313.53 360.17 256 313.53 151.83 256 151.83zm0 156.25c-28.76 0-52.08-23.32-52.08-52.08s23.32-52.08 52.08-52.08 52.08 23.32 52.08 52.08-23.32 52.08-52.08 52.08z" fill="#fff"/>
  <path d="M256 52.06c-112.5 0-203.94 91.44-203.94 203.94S143.5 459.94 256 459.94 459.94 368.51 459.94 256 368.5 52.06 256 52.06zm0 339.58c-74.91 0-135.64-60.73-135.64-135.64S181.09 120.36 256 120.36 391.64 181.09 391.64 256 330.91 391.64 256 391.64z" fill="#3898FF"/>
</svg>
